Coordinates
version=1
nRows=11
nColumns=63
inDegrees=yes

Units are S.I. units (second, meters, Newtons, ...)
If the header above contains a line with 'inDegrees', this indicates whether rotational values are in degrees (yes) or radians (no).

endheader
time	pelvis_tilt	pelvis_list	pelvis_rotation	pelvis_tx	pelvis_ty	pelvis_tz	hip_flexion_r	hip_adduction_r	hip_rotation_r	knee_angle_r	knee_angle_r_beta	ankle_angle_r	subtalar_angle_r	mtp_angle_r	hip_flexion_l	hip_adduction_l	hip_rotation_l	knee_angle_l	knee_angle_l_beta	ankle_angle_l	subtalar_angle_l	mtp_angle_l	L5_S1_Flex_Ext	L5_S1_Lat_Bending	L5_S1_axial_rotation	L4_L5_Flex_Ext	L4_L5_Lat_Bending	L4_L5_axial_rotation	L3_L4_Flex_Ext	L3_L4_Lat_Bending	L3_L4_axial_rotation	L2_L3_Flex_Ext	L2_L3_Lat_Bending	L2_L3_axial_rotation	L1_L2_Flex_Ext	L1_L2_Lat_Bending	L1_L2_axial_rotation	L1_T12_Flex_Ext	L1_T12_Lat_Bending	L1_T12_axial_rotation	Abs_r3	Abs_r2	Abs_r1	Abs_t1	Abs_t2	neck_flexion	neck_bending	neck_rotation	arm_flex_r	arm_add_r	arm_rot_r	elbow_flex_r	pro_sup_r	wrist_flex_r	wrist_dev_r	arm_flex_l	arm_add_l	arm_rot_l	elbow_flex_l	pro_sup_l	wrist_flex_l	wrist_dev_l
      2.75000000	     -1.52982159	      0.10812401	     93.94835051	      0.28351854	      0.72664454	      0.88905383	     -4.71987447	      0.02513514	     -3.17947999	      3.53883559	      0.06176433	     18.02844690	     10.43746503	      0.00000000	     -4.91678233	      0.96546686	    -10.56541592	      4.57757748	      0.07989380	     18.83834207	      5.12955187	      0.00000000	     -0.21089465	     -0.15932887	     -0.75778743	     -0.39165246	     -0.21190740	     -0.80514915	     -0.34647883	     -0.38739222	     -0.80514915	     -0.24103150	     -0.38739222	     -0.66306400	     -0.19583678	     -0.32490344	     -0.61570229	     -0.12050521	     -0.24680042	     -0.56834057	     -1.50639943	     -1.80236007	     -4.21458636	      0.00000000	      0.00000000	     16.38717117	      0.82281843	      8.81297784	     28.73908003	     -9.97344944	     20.04126404	    124.31161025	     66.66548478	    -15.58186819	     17.71845680	      4.71859272	    -17.03816850	      1.69786330	     81.15475406	     76.90259470	     -8.79275109	     11.34867908
      2.76666667	     -1.57094666	      0.14869909	     93.96962114	      0.28361456	      0.72676139	      0.88960721	     -4.72507198	     -0.00437070	     -3.23771729	      3.54245444	      0.06182749	     18.00016955	     10.41930620	      0.00000000	     -4.90956442	      0.99440974	    -10.58500920	      4.61011487	      0.08046168	     18.74547313	      5.13312339	      0.00000000	     -0.21980227	     -0.16373395	     -0.75085888	     -0.40819479	     -0.21776616	     -0.79778756	     -0.36111315	     -0.39810273	     -0.79778756	     -0.25121201	     -0.39810273	     -0.65700152	     -0.20410839	     -0.33388627	     -0.61007284	     -0.12559502	     -0.25362389	     -0.56314416	     -1.57002563	     -1.85219120	     -4.17605182	      0.00000000	      0.00000000	     16.09761901	      0.84727985	      8.81686578	     29.16847438	    -10.18590126	     19.63489563	    124.58186105	     66.72946506	    -15.56442029	     17.57329854	      4.50375883	    -17.11619820	      1.54526294	     81.29093218	     76.83294879	     -8.78533986	     11.29841128
      2.78333333	     -1.61297199	      0.22018834	     93.95335321	      0.28352503	      0.72703627	      0.88987481	     -4.78193483	     -0.05477857	     -3.35241153	      3.57836562	      0.06245426	     17.94406252	     10.37957246	      0.00000000	     -4.94132774	      1.04418009	    -10.65983427	      4.66660587	      0.08144764	     18.57285393	      5.12985508	      0.00000000	     -0.23057634	     -0.16826002	     -0.74358544	     -0.42820333	     -0.22378583	     -0.79005953	     -0.37881387	     -0.40910742	     -0.79005953	     -0.26352570	     -0.40910742	     -0.65063726	     -0.21411319	     -0.34311584	     -0.60416317	     -0.13175132	     -0.26063478	     -0.55768908	     -1.64698376	     -1.90339104	     -4.13559913	      0.00000000	      0.00000000	     15.65566552	      1.01525300	      8.82489725	     29.49930342	    -10.47957311	     19.20889005	    125.16423770	     66.86251597	    -15.47385442	     17.28609676	      4.19289790	    -17.13121041	      1.24874163	     81.50816287	     76.64145788	     -8.80416818	     11.24184929
      2.80000000	     -1.74135143	      0.16710423	     93.77653220	      0.28386582	      0.72726828	      0.88951679	     -4.72310783	     -0.22235627	     -3.67866133	      3.65721883	      0.06383051	     17.99053227	     10.78917382	      0.00000000	     -4.95322774	      1.18406992	    -11.17888655	      4.59818035	      0.08025339	     18.35530134	      5.55690371	      0.00000000	     -0.20699741	     -0.19463020	     -0.73971487	     -0.38441488	     -0.25885816	     -0.78594705	     -0.34007604	     -0.47322386	     -0.78594705	     -0.23657734	     -0.47322386	     -0.64725051	     -0.19221779	     -0.39688989	     -0.60101833	     -0.11827832	     -0.30148217	     -0.55478615	     -1.47856177	     -2.20169569	     -4.11407220	      0.00000000	      0.00000000	     15.13948111	      2.40543274	      9.22190249	     29.39992313	    -10.38378850	     18.64124452	    125.59126074	     69.08793102	    -14.35513875	     15.32369769	      3.58661923	    -16.99683022	      0.49346783	     81.91294960	     74.30770638	     -8.56001424	     11.74333985
      2.81666667	     -1.69931655	      0.19206543	     93.78130980	      0.28374494	      0.72751271	      0.88946557	     -4.74879795	     -0.18076431	     -3.83610143	      3.70876751	      0.06473020	     17.92577979	     10.73109123	      0.00000000	     -4.96387680	      1.14139048	    -11.28014229	      4.61938117	      0.08062341	     18.20504866	      5.60128267	      0.00000000	     -0.20524834	     -0.19332799	     -0.73923205	     -0.38116670	     -0.25712623	     -0.78543405	     -0.33720251	     -0.47005767	     -0.78543405	     -0.23457833	     -0.47005767	     -0.64682804	     -0.19059361	     -0.39423443	     -0.60062604	     -0.11727890	     -0.29946505	     -0.55442403	     -1.46606840	     -2.18696487	     -4.11138687	      0.00000000	      0.00000000	     15.24958459	      2.57237420	      9.34028336	     29.33815553	    -10.25384243	     17.92129132	    126.65188793	     69.30999523	    -14.34088228	     15.02150850	      3.28177716	    -16.90689548	      0.20999922	     82.12842170	     74.13037422	     -8.66096832	     11.71796006
      2.83333333	     -1.72829829	      0.01704864	     93.92997539	      0.28368513	      0.72739575	      0.88971449	     -4.56179885	     -0.20868710	     -4.11125263	      3.74607789	      0.06538139	     17.94122681	     10.75810914	      0.00000000	     -4.74200732	      1.14248047	    -11.42006732	      4.64081757	      0.08099755	     18.16686240	      6.02346536	      0.00000000	     -0.17360906	     -0.21180622	     -0.74859344	     -0.32240938	     -0.28170228	     -0.79538053	     -0.28522232	     -0.51498566	     -0.79538053	     -0.19841779	     -0.51498566	     -0.65501926	     -0.16121337	     -0.43191525	     -0.60823217	     -0.09920021	     -0.32808784	     -0.56144508	     -1.24007213	     -2.39599438	     -4.16345211	      0.00000000	      0.00000000	     15.76138891	      3.58002234	      9.27206917	     28.95987781	     -9.81336678	     16.82561998	    127.71245307	     71.22117040	    -13.93596373	     14.46740586	      3.12097872	    -16.79288229	     -0.05491113	     82.38743024	     73.43779348	     -8.92161507	     12.27293803
      2.85000000	     -1.77690960	      0.01925562	     94.12068234	      0.28359120	      0.72747482	      0.88992883	     -4.57408490	     -0.24262955	     -4.56759465	      3.77895213	      0.06595516	     18.04171740	     11.06248320	      0.00000000	     -4.67644608	      1.12334837	    -11.91546123	      4.75403589	      0.08297358	     18.27525642	      6.94489175	      0.00000000	     -0.16484492	     -0.22227996	     -0.78599431	     -0.30613350	     -0.29563235	     -0.83511895	     -0.27082372	     -0.54045150	     -0.83511895	     -0.18840126	     -0.54045150	     -0.68774502	     -0.15307499	     -0.45327330	     -0.63862038	     -0.09419239	     -0.34431166	     -0.58949573	     -1.17747079	     -2.51447541	     -4.37146455	      0.00000000	      0.00000000	     16.32218607	      3.58170950	      9.51650677	     28.67906128	     -9.13972527	     15.72419538	    128.67142197	     75.59396112	    -13.33365513	     15.02120596	      3.04466824	    -16.91123646	     -0.08751190	     82.50256422	     72.80442229	     -9.19021630	     12.55094630
      2.86666667	     -1.77356759	      0.00624612	     94.20574045	      0.28328873	      0.72743296	      0.89028502	     -4.55556071	     -0.23807847	     -4.64157136	      3.79894798	      0.06630415	     18.16098865	     11.04567143	      0.00000000	     -4.62169340	      1.11872671	    -11.93533991	      4.79939909	      0.08376532	     18.30055024	      6.99068949	      0.00000000	     -0.15421330	     -0.22361950	     -0.80721230	     -0.28638952	     -0.29741394	     -0.85766307	     -0.25335703	     -0.54370846	     -0.85766307	     -0.17625038	     -0.54370846	     -0.70631076	     -0.14320247	     -0.45600489	     -0.65586000	     -0.08811748	     -0.34638661	     -0.60540923	     -1.10153018	     -2.52962855	     -4.48947266	      0.00000000	      0.00000000	     17.00706377	      3.62939012	      9.73585533	     28.54676004	     -8.85596994	     15.12614284	    129.48386594	     75.86399811	    -13.34150603	     14.82808488	      3.03155168	    -16.82615138	     -0.27758966	     82.45102181	     72.77160801	     -9.27631481	     12.52776166
      2.88333333	     -1.80367984	     -0.05099661	     94.38694360	      0.28289142	      0.72727730	      0.89081334	     -4.49205152	     -0.26639077	     -4.82662570	      3.84015851	      0.06702341	     18.26737560	     11.01345995	      0.00000000	     -4.48028470	      1.13337900	    -11.83191689	      4.90805487	      0.08566172	     18.37219155	      7.13095026	      0.00000000	     -0.14210457	     -0.22742767	     -0.83859144	     -0.26390240	     -0.30247881	     -0.89100340	     -0.23346360	     -0.55296765	     -0.89100340	     -0.16241132	     -0.55296765	     -0.73376751	     -0.13195831	     -0.46377051	     -0.68135554	     -0.08119855	     -0.35228547	     -0.62894358	     -1.01503876	     -2.57270733	     -4.66399399	      0.00000000	      0.00000000	     17.76819862	      3.67452694	      9.95202686	     28.43931820	     -8.74422063	     14.63013441	    130.19059441	     76.49577658	    -13.18216734	     14.81618191	      3.15407286	    -16.77646499	     -0.39460347	     82.29032262	     72.79657770	     -9.41985836	     12.45719319
      2.90000000	     -1.82472233	     -0.03871444	     94.51409791	      0.28242353	      0.72724096	      0.89094281	     -4.54155338	     -0.31547609	     -4.83284441	      3.88782666	      0.06785538	     18.32773495	     11.05187535	      0.00000000	     -4.46545860	      1.16690897	    -11.85629108	      4.95325364	      0.08645058	     18.43637896	      7.13223739	      0.00000000	     -0.12827592	     -0.22666446	     -0.87807297	     -0.23822121	     -0.30146373	     -0.93295253	     -0.21074451	     -0.55111197	     -0.93295253	     -0.14660655	     -0.55111197	     -0.76831385	     -0.11911702	     -0.46221417	     -0.71343429	     -0.07329686	     -0.35110325	     -0.65855473	     -0.91626205	     -2.56407372	     -4.88357844	      0.00000000	      0.00000000	     17.96221585	      3.61535598	     10.06789484	     28.36448492	     -8.83209446	     14.47127314	    130.62944792	     76.73936999	    -13.08344492	     14.82629930	      3.22925821	    -16.82462914	     -0.49486111	     82.03866277	     72.82161693	     -9.53334292	     12.39636055
      2.91666667	     -1.80208585	     -0.11933483	     95.20022680	      0.28124051	      0.72712682	      0.89157220	     -4.48989648	     -0.29607094	     -6.21619586	      3.99914879	      0.06979831	     18.47063691	     11.81641583	      0.00000000	     -4.16874707	      1.05465742	    -11.55979002	      5.27435063	      0.09205478	     18.66087138	      7.75703179	      0.00000000	     -0.11226606	     -0.21704683	     -0.97221235	     -0.20848930	     -0.28867228	     -1.03297563	     -0.18444191	     -0.52772765	     -1.03297563	     -0.12830888	     -0.52772765	     -0.85068581	     -0.10425026	     -0.44260189	     -0.78992254	     -0.06414883	     -0.33620553	     -0.72915927	     -0.80190524	     -2.45527711	     -5.40715345	      0.00000000	      0.00000000	     18.20523667	      3.35979161	     10.25549653	     28.13044011	     -8.81487053	     13.86409309	    131.14251624	     80.09692050	    -12.33164537	     16.02863160	      3.56834837	    -16.96085751	      0.08707595	     81.55418545	     73.07387225	    -10.70214911	     11.28899334
